<svg width="16" height="17" viewBox="0 0 16 17" fill="none" xmlns="http://www.w3.org/2000/svg">
<path d="M12.625 1V2.5M3.625 1V2.5" stroke="#540D45" stroke-width="1.5" stroke-linecap="round" stroke-linejoin="round"/>
<path d="M1 8.68243C1 5.41445 1 3.78046 1.93909 2.76523C2.87818 1.75 4.38962 1.75 7.4125 1.75H8.8375C11.8604 1.75 13.3718 1.75 14.3109 2.76523C15.25 3.78046 15.25 5.41445 15.25 8.68243V9.06757C15.25 12.3355 15.25 13.9695 14.3109 14.9848C13.3718 16 11.8604 16 8.8375 16H7.4125C4.38962 16 2.87818 16 1.93909 14.9848C1 13.9695 1 12.3355 1 9.06757V8.68243Z" stroke="#540D45" stroke-width="1.5" stroke-linecap="round" stroke-linejoin="round"/>
<path d="M1.375 5.5H14.875" stroke="#540D45" stroke-width="1.5" stroke-linecap="round" stroke-linejoin="round"/>
</svg>
