<svg width="24" height="24" viewBox="0 0 24 24" fill="none" xmlns="http://www.w3.org/2000/svg">
<rect width="24" height="24" rx="12" fill="#540D45"/>
<path d="M15.1429 12.4114V10.5714L12.2857 9.14286V8.28571H13.4286V7.14286H12.2857V6H11.1429V7.14286H10V8.28571H11.1429V9.14286L8.28571 10.5714V12.4114L6 13.4286V18H10.5714V15.1429H12.8571V18H17.4286V13.4286L15.1429 12.4114ZM11.7143 13.1429C11.24 13.1429 10.8571 12.76 10.8571 12.2857C10.8571 11.8114 11.24 11.4286 11.7143 11.4286C12.1886 11.4286 12.5714 11.8114 12.5714 12.2857C12.5714 12.76 12.1886 13.1429 11.7143 13.1429Z" fill="white"/>
</svg>
